M48
VER,1
FMAT,2
INCH,LZ
ICI,OFF
DETECT,ON
ATC,ON
T01C.012
T02C.032
T03C.036
T04C.038
T05C.048
T06C.056
T07C.138
%
T01
X01425Y019725
X01Y019725
X00975Y02155
X00995Y01395
X0147Y01395
X01935Y01395
X009375Y00675
X0139Y00665
X01795Y0065
X0187Y0066
X01375Y0012
X018376Y002425
X023135Y00275
X029788Y0037
X013395Y004045
X025875Y004045
X02615Y0049
X02615Y0056
X031075Y005925
X0266Y00615
X02265Y0065
X031288Y006838
X031275Y007375
X034575Y00759
X0293Y007875
X030225Y007875
X031Y008375
X031325Y008875
X029275Y0097
X034575Y01
X029725Y0102
X0237Y010525
X0266Y010375
X02885Y010875
X030538Y010875
X0255Y01145
X034575Y011625
X0257Y012575
X030538Y01285
X035525Y013375
X0271Y01435
X026725Y01475
X026475Y015125
X0198Y0205
X021156Y0207
X026435Y02285
X029875Y023075
X022Y023593
X018375Y02375
X02755Y024175
X018375Y024375
X02425Y024625
X02675Y024675
X018375Y025
X018375Y025625
X018375Y02625
X018375Y026875
X019Y026875
X019625Y026875
X02025Y026875
X020875Y026875
X0215Y026875
X03563Y027559
X02575Y023
X00675Y02145
X029125Y024625
X029875Y024625
X030625Y024625
X027065Y02285
X025025Y02465
X025875Y00975
X025875Y008725
X025875Y007785
X013175Y0065
X018125Y004045
X022875Y004045
X027255Y008325
X02885Y009375
X02885Y008875
X02885Y008375
X03275Y010375
X03275Y00795
X03465Y0125
X02755Y023593
X01085Y008125
X0156Y008125
X02035Y008125
T02
X010433Y020669
X022433Y020669
X010433Y025787
X022433Y025787
T03
X028937Y02675
X028937Y02575
X027937Y02675
X027937Y02575
X026937Y02675
X026937Y02575
X025937Y02675
X025937Y02575
X024937Y02675
X024937Y02575
T04
X025375Y0155
X025375Y0175
X025375Y01975
X025375Y02175
T05
X003984Y019109
X003984Y017141
X002016Y017141
X003Y018125
X004969Y018125
X002016Y019109
X007875Y006125
X007875Y007125
X007875Y008125
X007875Y009125
X007875Y010125
X007875Y011125
X007875Y012125
X007875Y013125
X007875Y014125
X007875Y015125
X028543Y02275
X028543Y02175
X028543Y02075
X028543Y01975
X028543Y01875
X028543Y01775
X028543Y01675
X028543Y01575
X028543Y01475
X0115Y00875
X0125Y00875
X0105Y00875
X0115Y01225
X0105Y01225
X0125Y01225
X01625Y00875
X01725Y00875
X01525Y00875
X01625Y01225
X01525Y01225
X01725Y01225
X021Y00875
X022Y00875
X02Y00875
X021Y01225
X02Y01225
X022Y01225
T06
X001Y02175
X003165Y02175
T07
X003543Y003543
X032913Y003543
X032913Y024882
X003543Y024882
M30
