M48
VER,1
FMAT,2
INCH,LZ
ICI,OFF
DETECT,ON
ATC,ON
T01C.012
T02C.02756
T03C.02756
T04C.032
T05C.036
T06C.038
T07C.04331
T08C.044
T09C.048
T10C.052
T11C.06
T12C.062
T13C.099
%
T01
X017Y07375
X01625Y07375
X01575Y07425
X01625Y07475
X01575Y07525
X0123Y072015
X014769Y0768
X01225Y077
X0123Y077465
X0145Y0815
X0105Y0815
X0125Y0815
X0075Y0835
X0105Y084
X0125Y084
X0145Y084
X0075Y0855
X0105Y086
X0125Y086
X0145Y086
X026475Y003125
X026475Y0027
X02605Y0027
X02605Y003125
X029875Y002625
X030601Y004
X033875Y004125
X0278Y004375
X028175Y005013
X033875Y00475
X028175Y005775
X022375Y006625
X023635Y006625
X02095Y008
X02095Y00725
X026925Y007375
X033825Y007775
X028095Y010116
X035109Y009859
X0155Y0105
X017625Y0105
X022375Y010625
X023125Y010625
X03025Y010358
X034686Y011088
X0155Y0115
X017625Y0115
X022375Y011375
X023125Y011375
X023Y012775
X035625Y013
X032375Y018675
X032375Y02125
X005975Y02191
X036675Y021475
X002925Y022785
X00725Y02325
X007875Y02325
X00725Y02375
X007875Y02375
X002675Y028274
X00285Y0275
X00725Y028
X00725Y0275
X00775Y0275
X00775Y028
X002725Y029455
X00265Y030636
X0045Y031625
X0055Y0327
X006075Y035025
X006075Y03575
X006625Y0365
X011675Y0364
X012325Y036425
X015025Y036175
X022875Y036375
X026225Y0359
X007038Y036863
X0076Y036825
X012Y03675
X013475Y03685
X015675Y0368
X021927Y037475
X029275Y037225
X0339Y0374
X011925Y0384
X014208Y038375
X0186Y0379
X022025Y038475
X025825Y0379
X026654Y03845
X027225Y0385
X029075Y03785
X031721Y038475
X03245Y03785
X03365Y037775
X006025Y03875
X006025Y0395
X011925Y039475
X01355Y0387
X0186Y039
X021375Y03915
X030775Y038575
X006025Y04025
X007925Y040375
X008975Y040125
X008975Y039625
X0115Y039775
X011525Y040225
X0128Y040275
X013075Y0399
X013625Y039875
X014125Y039725
X0148Y039777
X01445Y0401
X0235Y039675
X028575Y040125
X030302Y040525
X030988Y039825
X031448Y040525
X033802Y040525
X006025Y041
X010138Y040863
X0119Y04095
X012775Y041275
X01245Y04055
X0132Y041425
X013275Y0409
X0136Y040575
X013625Y04125
X01415Y041475
X01475Y0413
X01965Y0406
X020275Y041475
X02065Y040775
X02095Y04145
X022813Y040575
X0269Y040575
X0293Y04055
X0297Y0409
X0321Y04085
X03425Y041225
X006025Y0425
X006025Y04175
X00725Y04225
X016013Y042538
X016525Y041825
X0188Y04165
X019325Y0416
X024Y041625
X027375Y042475
X028225Y04175
X02865Y041875
X029675Y0419
X0305Y042425
X031875Y0421
X0329Y041575
X033225Y041975
X006025Y04325
X01145Y043325
X013475Y042725
X026763Y042813
X027725Y04285
X0287Y043125
X030225Y043125
X0309Y04275
X006025Y044
X006175Y044475
X0139Y044375
X03165Y044075
X006125Y0455
X01Y045025
X012625Y045531
X01325Y045531
X01925Y0455
X006125Y04625
X012625Y04625
X01425Y046125
X01475Y046125
X0215Y046375
X0215Y045925
X022Y04595
X022Y046375
X031625Y046
X00615Y047
X012625Y04675
X01425Y046625
X01475Y046625
X022813Y047425
X0335Y04675
X0335Y04725
X00615Y04775
X0073Y0479
X025224Y049325
X03095Y04975
X0Y051
X002Y051
X004Y051
X006Y051
X023525Y051275
X02875Y051325
X03065Y051625
X001Y052
X003Y052
X005Y052
X00625Y0525
X007Y052
X022575Y051975
X0289Y051775
X02947Y05195
X03065Y05245
X0Y053
X002Y053
X004Y053
X032Y0535
X03345Y053
X034575Y053
X003Y054
X023925Y054625
X004Y055
X005Y05475
X006Y055
X007Y05475
X009Y055
X011Y055
X027975Y0553
X028319Y05565
X029106Y055525
X033225Y054925
X0347Y055025
X0045Y0565
X0065Y0565
X0085Y0565
X026875Y056075
X02875Y055825
X035375Y056675
X0015Y057
X0035Y057
X0055Y057
X0075Y057
X0095Y057
X02525Y05765
X029303Y05745
X0288Y057375
X0297Y057675
X0318Y0577
X034625Y05725
X0045Y058
X0065Y058
X0075Y0585
X0085Y058
X0095Y0585
X025675Y057978
X0271Y0579
X029975Y05805
X03095Y058325
X031325Y057775
X03325Y05785
X0055Y059
X007Y0595
X0085Y0595
X01485Y059025
X017113Y059663
X024625Y059198
X02475Y059675
X0291Y059593
X029975Y0597
X0308Y05885
X031275Y059075
X03385Y0596
X0055Y0605
X0075Y0605
X0095Y0605
X019075Y06005
X019625Y05975
X0247Y060734
X0275Y060537
X02715Y0601
X0314Y06
X031825Y05975
X03515Y0607
X017175Y06175
X017025Y06129
X019738Y061388
X02505Y0612
X029638Y06125
X03035Y06145
X030775Y06165
X033275Y061625
X036025Y061475
X0075Y062
X0095Y062
X0169Y06215
X0173Y0627
X024025Y0627
X0242Y062275
X025375Y061975
X02575Y062325
X029894Y062025
X03045Y062025
X031175Y06185
X031675Y062025
X033325Y062325
X0336Y062675
X0336Y061975
X0357Y0625
X0357Y061825
X036025Y062175
X0055Y063
X007Y063
X0085Y063
X013375Y06355
X014125Y06315
X014575Y06315
X01625Y063287
X01675Y06339
X0243Y063057
X02715Y063725
X033325Y063025
X0357Y06315
X036025Y062825
X036025Y063475
X00325Y06425
X004625Y06425
X006Y064
X0075Y064
X009Y064
X009825Y064062
X012625Y0643
X01445Y063825
X017995Y063925
X029303Y063925
X029927Y0639
X0035Y065
X0055Y065
X007Y065
X0085Y065
X01625Y0655
X029777Y065425
X030425Y065417
X012625Y066125
X01625Y0665
X01625Y066
X028775Y066008
X031025Y066598
X032175Y066625
X032175Y066025
X0005Y067
X004Y067
X006Y067
X008Y067
X01Y067
X012Y067
X016375Y067625
X016375Y067125
X029075Y067189
X030367Y06765
X030761Y0674
X034427Y0673
X003Y068
X005Y068
X007Y068
X009Y068
X016375Y06825
X0322Y068
X0005Y069
X004Y069
X006Y069
X008Y069
X01Y069
X0005Y0705
X002Y07
X003Y0705
X005Y0705
X023975Y070375
X023125Y0713
X0255Y0715
X0275Y0715
X0295Y0715
X03175Y0715
X03525Y0715
X03825Y0715
X024Y07275
X0255Y07275
X0275Y07275
X0295Y07275
X03175Y07275
X03525Y07275
X03825Y07275
X01725Y073
X01925Y073
X021375Y073
X0275Y07375
X02825Y07375
X03525Y07375
X0275Y0745
X02825Y0745
X03825Y074
X02825Y07525
X032975Y075875
X0335Y075875
X03405Y075875
X0Y0775
X002Y0775
X0055Y0775
X0105Y077
X0Y0795
X002Y0795
X005125Y080625
X0Y0815
X002Y0815
X005125Y081625
X005125Y081125
X0355Y081
X03675Y081
X038Y081
X002725Y08225
X004375Y08225
X00475Y082
X005125Y08225
X0055Y0835
X0055Y0855
X03865Y08575
X037538Y086263
X04275Y087725
X047Y087875
X0052Y033325
X039025Y075375
X-00005Y046275
X-00005Y0441
X-00005Y04195
X-00005Y039775
X-00005Y037625
X003Y03316
X006875Y031285
X00415Y029455
X0055Y0274
X00525Y02585
X006725Y0268
X00725Y02505
X007875Y02505
X00575Y0242
X004025Y022975
X00325Y02405
X000875Y023425
X004225Y019575
X00725Y021975
X007875Y021975
X002625Y030045
X00855Y039375
X0068Y04
X00885Y041375
X00935Y0407
X0103Y041475
X01015Y04275
X011375Y042675
X00955Y04325
X011988Y043213
X0185Y039975
X010625Y03625
X0104Y0373
X012875Y0363
X02115Y0379
X0255Y039125
X027275Y03905
X027823Y040575
X030029Y038475
X0311Y03905
X03225Y040125
X033529Y038475
X0346Y0391
X035725Y040125
X02175Y044825
X022813Y044825
X02075Y044825
X019975Y048275
X0198Y058912
X0198Y058
X01255Y058575
X015975Y06
X017276Y060349
X017288Y060913
X016625Y05975
X01675Y060675
X0163Y06225
X0135Y06225
X012688Y06115
X0132Y058675
X00385Y08095
X012325Y07355
X015Y0792
X014Y0792
X0145Y0792
X014Y07795
X0145Y07795
X015Y07795
X014125Y07495
X0146Y07495
X015125Y07495
X014125Y073725
X014625Y073725
X014175Y0768
X015125Y073725
X03945Y08675
X04155Y081875
X03035Y0687
X027763Y069638
X025675Y06795
X026125Y0665
X026125Y06725
X026125Y06575
X03135Y064875
X032731Y06485
X025375Y061525
X025775Y0613
X027425Y058569
X02715Y058925
X027075Y05745
X027501Y057325
X029894Y056075
X02865Y054625
X029375Y05475
X030475Y054075
X03084Y054375
X035925Y05665
X0193Y04635
X03375Y03175
X035375Y01045
X036625Y00325
X031875Y00325
X029302Y011825
X026025Y011872
X026475Y0119
X0255Y011097
X027Y013
X02225Y00875
X026925Y006741
X026775Y006225
X02525Y005375
X02555Y002875
X02225Y00375
X02225Y0045
X02325Y005025
X024625Y005025
X02375Y0045
X02375Y00375
X026025Y00385
X01515Y00205
X0148Y00175
X018Y001125
X024Y06925
X005375Y023125
X014255Y002875
X005Y028775
X002825Y065
X002575Y064375
X00115Y064375
X0035Y058
X00115Y058
X002575Y058
X002575Y0575
X00115Y0575
X00115Y0656
X002575Y0656
X04075Y0893
X0289Y0613
X028725Y060852
X027175Y06145
X0275Y061775
X033825Y0602
X01425Y07975
X01355Y063125
X0134Y0627
X01375Y036038
X017Y0007
X02705Y06481
X01975Y001775
X03585Y037725
X003425Y026625
X035425Y032025
X028228Y07067
X036116Y032836
X03465Y034625
X035875Y034625
X013223Y03835
X021375Y049875
X022375Y048275
X02947Y04385
X03635Y02085
X0341Y020275
X033Y04955
X0336Y04955
X033Y04905
X0336Y04905
X03425Y04675
X03425Y04725
X0158Y00275
X02065Y00595
X02065Y00645
X03643Y0119
X01625Y0547
X01625Y0542
X01685Y0547
X01685Y0542
X009Y05295
X0345Y0287
X0345Y0292
X018156Y004525
X018375Y003725
X02075Y003725
X0194Y0082
X01995Y008675
X01995Y0082
X0194Y008675
X01Y054
X01Y052
X011Y053
X0085Y052
X008Y051
X01Y051
X011Y068
X012Y069
X017025Y05665
X01735Y057475
X0186Y057075
X01365Y058675
X030225Y0554
X033325Y055425
X03765Y0857
X0394Y08905
X03815Y08915
X0333Y0141
X0333Y0146
X039125Y085625
X039325Y085225
X039425Y086025
X0412Y086975
X04425Y085625
X044225Y0862
X04Y085375
X0164Y00515
X0158Y00515
X0158Y0046
X0164Y0046
X02875Y068725
X03045Y0643
X0321Y067325
X0228Y04965
X0103Y039973
X01145Y03895
X016025Y039275
X016Y041225
X016Y040564
X045463Y086838
X044875Y089375
X0022Y02425
X01155Y0735
X0245Y06945
X023165Y0694
X02355Y0694
X009712Y07335
X0287Y00185
X0293Y00185
T02
X039213Y087579
X038898Y088051
X038583Y087579
X038268Y088051
X037953Y087579
T03
X037146Y089331
X037146Y089803
X037146Y089466
X037146Y089601
X037146Y089668
X037146Y089398
X037146Y089533
X037146Y089736
X04002Y089331
X04002Y089803
X04002Y089466
X04002Y089601
X04002Y089668
X04002Y089398
X04002Y089533
X04002Y089736
T04
X007266Y046841
X009234Y045659
X042079Y085823
X04263Y085823
X043181Y085823
X043732Y085823
X046331Y085823
X046882Y085823
X047433Y085823
X047984Y085823
T05
X03152Y082
X03152Y083
X03152Y084
X03052Y082
X03052Y083
X03052Y084
X03252Y082
X03252Y085
X02952Y085
X02952Y082
X002953Y035827
X001953Y035827
X002953Y036827
X001953Y036827
X002953Y037827
X001953Y037827
X002953Y038827
X001953Y038827
X002953Y039827
X001953Y039827
X002953Y040827
X001953Y040827
X002953Y041827
X001953Y041827
X002953Y042827
X001953Y042827
X002953Y043827
X001953Y043827
X002953Y044827
X001953Y044827
X002953Y045827
X001953Y045827
X002953Y046827
X001953Y046827
X002953Y047827
X001953Y047827
T06
X022165Y000866
X022165Y001866
X023165Y000866
X023165Y001866
X024165Y000866
X024165Y001866
X025165Y000866
X025165Y001866
X026165Y000866
X026165Y001866
T07
X043917Y086933
X043917Y087287
X043917Y08711
X043917Y087022
X043917Y087199
X042012Y086933
X042012Y087287
X042012Y08711
X042012Y087022
X042012Y087199
X042012Y088445
X042012Y088799
X042012Y088622
X042012Y088533
X042012Y088711
X043917Y088445
X043917Y088799
X043917Y088622
X043917Y088533
X043917Y088711
X048169Y086933
X048169Y087287
X048169Y08711
X048169Y087022
X048169Y087199
X046264Y086933
X046264Y087287
X046264Y08711
X046264Y087022
X046264Y087199
X046264Y088445
X046264Y088799
X046264Y088622
X046264Y088533
X046264Y088711
X048169Y088445
X048169Y088799
X048169Y088622
X048169Y088533
X048169Y088711
T08
X035375Y02525
X035375Y02425
T09
X037234Y084484
X037234Y082516
X035266Y082516
X03625Y0835
X038219Y0835
X035266Y084484
T10
X000875Y076
X004875Y076
X003859Y073984
X003859Y072016
X001891Y072016
X002875Y073
X004844Y073
X001891Y073984
X015625Y045531
X011625Y045531
X012641Y047547
X012641Y049516
X014609Y049516
X013625Y048531
X011656Y048531
X014609Y047547
X020125Y080625
X023375Y080625
T11
X011453Y033583
X013012Y033583
X014571Y033583
X01613Y033583
X017689Y033583
X019248Y033583
X020807Y033583
X022366Y033583
X023925Y033583
X025484Y033583
X027043Y033583
X028602Y033583
X023327Y077087
X021768Y077087
X020209Y077087
T12
X011398Y082795
X014154Y082795
X021417Y084307
X024803Y084307
X00565Y086732
X028445Y086732
T13
X000469Y061125
X004013Y061125
M30
